<svg id="Layer_1" data-name="Layer 1" xmlns="http://www.w3.org/2000/svg" viewBox="0 0 122.88 80.23"><defs><style>.cls-1{fill-rule:evenodd;}</style></defs><title>refund</title><path class="cls-1" d="M32.72,34.72,27.64,46.06c12.92,9.33,32.17,15,45.57,8-11.46,21.62-38,21.61-55.7,14.55L12.33,80.23,0,47.39,32.72,34.72ZM49,0l73.92,17.59L112.28,60,38.36,42.42,49,0Zm34.8,17.53a12.86,12.86,0,1,1-15.6,9.37,12.86,12.86,0,0,1,15.6-9.37ZM61,9.86l46.57,10.76a6.47,6.47,0,0,0,4.71,7.83l-4.18,16.78a6.46,6.46,0,0,0-7.83,4.7L53.67,39.17A6.47,6.47,0,0,0,49,31.34l4.18-16.77A6.47,6.47,0,0,0,61,9.86Z"/></svg>