<?xml version="1.0" encoding="UTF-8"?>
<svg xmlns="http://www.w3.org/2000/svg" id="Layer_1" data-name="Layer 1" viewBox="0 0 24 24">
  <path d="M6.692,8.801c-1.638,.114-3.056,.353-3.997,.544,.033-2.904,.952-5.222,1.229-5.857,.528-.191,2.221-.727,4.592-.727s4.066,.537,4.594,.728c.111,.25,.323,.763,.539,1.47,.08,.264,.358,.414,.624,.332,.264-.081,.413-.36,.332-.624-.337-1.105-.665-1.768-.679-1.795-.053-.106-.142-.19-.25-.237-.083-.036-2.08-.874-5.16-.874s-5.075,.838-5.158,.874c-.11,.047-.2,.131-.252,.239-.058,.117-1.412,2.905-1.412,6.631,0,.021,.002,.042,.004,.063-.125,.031-.198,.051-.213,.055-.19,.052-.332,.21-.363,.405-.005,.032-.123,.794-.123,1.808,0,1.022,.118,1.777,.124,1.809,.034,.211,.198,.378,.409,.414,.027,.005,.278,.047,.705,.107v.88c0,1.146,.924,2.078,2.06,2.078s2.06-.932,2.06-2.078v-.881c0-.023-.002-.046-.005-.068,.002-.013,.003-.025,.004-.038,.017-.275-.192-.513-.468-.53-1.759-.11-3.182-.302-3.821-.398-.031-.297-.067-.758-.067-1.294,0-.554,.039-1.031,.071-1.329,.709-.169,2.516-.558,4.691-.708,.275-.02,.483-.258,.464-.534-.02-.276-.261-.482-.534-.464Zm-2.396,7.324c-.584,0-1.06-.484-1.06-1.078v-.752c.591,.069,1.311,.142,2.12,.2v.552c0,.594-.476,1.078-1.06,1.078Z" fill="#ffffff"/>
  <path d="M22.876,15.141c-.031-.194-.172-.352-.362-.404-.018-.005-.091-.025-.214-.055,.003-.021,.004-.042,.004-.063,0-3.758-1.355-6.518-1.413-6.633-.053-.106-.142-.19-.25-.237-.083-.036-2.079-.874-5.159-.874s-5.075,.838-5.159,.874c-.11,.047-.2,.132-.252,.239-.058,.117-1.411,2.905-1.411,6.631,0,.021,.002,.042,.004,.063-.122,.03-.195,.05-.213,.055-.19,.052-.332,.21-.362,.404-.005,.032-.124,.794-.124,1.809,0,1.022,.119,1.777,.124,1.809,.034,.211,.198,.377,.409,.414,.035,.006,.286,.049,.704,.108v.88c0,1.146,.924,2.078,2.06,2.078s2.06-.932,2.06-2.078v-.489c.683,.035,1.41,.057,2.161,.057s1.477-.022,2.161-.057v.489c0,1.146,.924,2.078,2.06,2.078s2.06-.932,2.06-2.078v-.88c.419-.059,.669-.102,.704-.108,.211-.036,.376-.203,.41-.415,.005-.032,.123-.794,.123-1.808,0-1.022-.118-1.777-.124-1.809Zm-11.986-6.538c.531-.191,2.233-.728,4.593-.728s4.065,.537,4.593,.728c.278,.63,1.195,2.929,1.228,5.855-1.277-.26-3.431-.608-5.821-.608s-4.543,.348-5.821,.609c.033-2.904,.951-5.22,1.229-5.856Zm1.432,11.558c0,.594-.475,1.078-1.06,1.078s-1.06-.484-1.06-1.078v-.751c.592,.069,1.312,.142,2.12,.2v.551Zm8.441,0c0,.594-.475,1.078-1.06,1.078s-1.06-.484-1.06-1.078v-.551c.807-.059,1.527-.131,2.12-.201v.752Zm1.169-1.916c-.935,.139-3.543,.483-6.45,.483s-5.517-.344-6.45-.483c-.031-.297-.067-.758-.067-1.294,0-.554,.039-1.031,.071-1.329,.531-.126,1.676-.376,3.134-.557v.934c0,.276,.224,.5,.5,.5s.5-.224,.5-.5v-1.041c.728-.065,1.509-.108,2.313-.108s1.584,.042,2.312,.108v1.041c0,.276,.224,.5,.5,.5s.5-.224,.5-.5v-.934c1.459,.181,2.604,.431,3.134,.557,.032,.296,.07,.771,.07,1.329,0,.533-.036,.995-.067,1.294Z" fill="#ffffff"/>
</svg>
