<?xml version="1.0" encoding="UTF-8"?>
<svg  xmlns="http://www.w3.org/2000/svg" width="10px" height="10px" id="Layer_1" data-name="Layer 1" viewBox="0 0 24 24">
  <path d="M17.842,10.308H6.158c-.276,0-.5,.224-.5,.5s.224,.5,.5,.5h11.684c.276,0,.5-.224,.5-.5s-.224-.5-.5-.5Z"/>
  <path d="M16.792,13.54H7.208c-.276,0-.5,.224-.5,.5s.224,.5,.5,.5h9.584c.276,0,.5-.224,.5-.5s-.224-.5-.5-.5Z"/>
  <path d="M7.208,8.075h3.251c.276,0,.5-.224,.5-.5s-.224-.5-.5-.5h-3.251c-.276,0-.5,.224-.5,.5s.224,.5,.5,.5Z"/>
  <path d="M21.765,2.585c-.055-.16-.188-.281-.352-.322-.178-.044-4.405-1.086-9.413-1.086C7.081,1.177,2.771,2.218,2.589,2.262c-.166,.041-.3,.164-.354,.326-.051,.149-1.234,3.708-1.234,8.402s1.184,8.252,1.234,8.402c.055,.163,.189,.286,.357,.326,.115,.028,2.837,.674,6.354,.957,1.39,1.279,2.749,2.051,2.809,2.084,.076,.043,.16,.064,.245,.064,.081,0,.163-.02,.236-.06,.057-.03,1.361-.738,2.813-2.083,3.592-.28,6.25-.936,6.363-.963,.165-.042,.298-.163,.353-.324,.05-.148,1.234-3.678,1.234-8.403,0-4.765-1.185-8.258-1.235-8.405Zm-.864,16.225c-.778,.175-3.155,.669-6.102,.887-.114,.008-.224,.056-.307,.136-1.046,.992-2.044,1.642-2.488,1.911-.457-.283-1.493-.965-2.502-1.917-.083-.079-.19-.126-.305-.135-2.885-.22-5.304-.711-6.098-.884-.268-.9-1.1-4.004-1.1-7.817s.833-6.919,1.1-7.819c1.025-.227,4.791-.994,8.9-.994,4.176,0,7.891,.766,8.901,.994,.268,.886,1.099,3.95,1.099,7.819,0,3.839-.832,6.927-1.1,7.82Z"/>
</svg>
